# xmcd
#
# Track frame offsets:
#	150
#	16534
#	28704
#	44164
#	63448
#	79714
#	95300
#	109022
#	129064
#	153027
#	173963
#	193545
#	210551
#	227379
#	244532
#
# Disc length: 3571 seconds
# Revision: 0
# Processed by: cddbd v1.5.2PL0 Copyright (c) Steve Scherf et al.
# Submitted via: dBpowerAMP V12.0
#
DISCID=aa0df10f
DTITLE=The Manhattans - Sweet Talking Soul 1965-1990 [CD2 of 3)
DYEAR=2008
DGENRE=R&B
TTITLE0=There's No Me Without You
TTITLE1=Do You Ever
TTITLE2=You'd Better Believe It
TTITLE3=Wish That You Were Mine
TTITLE4=Summertime In The City
TTITLE5=Don't Take Your Love
TTITLE6=Hurt
TTITLE7=Kiss And Say Goodbye
TTITLE8=I Kinda Miss You
TTITLE9=It Feels So Good To Be Loved So Bad
TTITLE10=We Never Danced To A Love Song
TTITLE11=Am I Losing You
TTITLE12=Everybody Has A Dream
TTITLE13=Here Comes The Hurt Again
TTITLE14=The Way We Were/Memories
EXTD=
EXTT0=
EXTT1=
EXTT2=
EXTT3=
EXTT4=
EXTT5=
EXTT6=
EXTT7=
EXTT8=
EXTT9=
EXTT10=
EXTT11=
EXTT12=
EXTT13=
EXTT14=
PLAYORDER=
